<svg xmlns="http://www.w3.org/2000/svg" version="1.1" xmlns:xlink="http://www.w3.org/1999/xlink" xmlns:svgjs="http://svgjs.dev/svgjs" width="2000" height="1642" viewBox="0 0 2000 1642"><g transform="matrix(1,0,0,1,-2.1981862342520344,-2.648387096774286)"><svg viewBox="0 0 302 248" data-background-color="#ffffff" preserveAspectRatio="xMidYMid meet" height="1642" width="2000" xmlns="http://www.w3.org/2000/svg" xmlns:xlink="http://www.w3.org/1999/xlink"><g id="tight-bounds" transform="matrix(1,0,0,1,0.33192612137204947,0.4000000000000057)"><svg viewBox="0 0 301.3361477572559 247.2" height="247.2" width="301.3361477572559"><g><svg viewBox="0 0 301.3361477572559 247.2" height="247.2" width="301.3361477572559"><g><svg viewBox="0 0 301.3361477572559 247.2" height="247.2" width="301.3361477572559"><g id="textblocktransform"><svg viewBox="0 0 301.3361477572559 247.2" height="247.2" width="301.3361477572559" id="textblock"><g><svg viewBox="0 0 301.3361477572559 247.2" height="247.2" width="301.3361477572559"><g transform="matrix(1,0,0,1,0,0)"><svg width="301.3361477572559" viewBox="3.35 -36.3 46.199999999999996 37.9" height="247.2" data-palette-color="#3d3839"><path d="M10.05-25.05L10.05-25.05 10.1-19.3 17.6-19.75Q17.6-27.55 17.85-36.3L17.85-36.3 24.45-35.7Q24-27.75 24-18.48 24-9.2 24.55 0.15L24.55 0.15 18.15-0.4Q17.7-4.7 17.6-14.2L17.6-14.2 10.25-13.75Q10.4-6.65 10.7 0.7L10.7 0.7 3.9 0.1Q3.35-10.45 3.35-19.3 3.35-28.15 3.75-34.6L3.75-34.6 10.35-34Q10.05-29.55 10.05-25.05ZM48.25-19.8L42.05-21.85Q42.7-24.3 42.7-25.95 42.7-27.6 41.8-28.68 40.9-29.75 39.47-29.75 38.05-29.75 37.1-28.35 36.15-26.95 36.15-25.15L36.15-25.15Q36.15-21.65 40.15-19.15L40.15-19.15Q44.15-16.55 45.6-15.4 47.05-14.25 47.65-13.3L47.65-13.3Q49.15-10.85 49.15-8.25L49.15-8.25Q49.15-3.75 46.12-1.07 43.1 1.6 39.3 1.6L39.3 1.6Q34.8 1.6 31.75-2.2L31.75-2.2Q29.55-4.95 27.7-9.05L27.7-9.05 32.55-11.4Q33.7-8.4 35.42-6.33 37.15-4.25 39.1-4.25L39.1-4.25Q40.35-4.25 41.35-5.05 42.35-5.85 42.35-7.48 42.35-9.1 41.1-10.5 39.85-11.9 37.75-13.35 35.65-14.8 34.5-15.73 33.35-16.65 31.95-18.1L31.95-18.1Q29.3-20.9 29.3-25.28 29.3-29.65 32.35-32.63 35.4-35.6 39.6-35.6 43.8-35.6 46.67-32.35 49.55-29.1 49.55-25.68 49.55-22.25 48.25-19.8L48.25-19.8Z" opacity="1" transform="matrix(1,0,0,1,0,0)" fill="#ffffff" class="wordmark-text-0" data-fill-palette-color="primary" id="text-0"></path></svg></g></svg></g></svg></g></svg></g><g></g></svg></g><defs></defs></svg><rect width="301.3361477572559" height="247.2" fill="none" stroke="none" visibility="hidden"></rect></g></svg></g></svg>